<svg xmlns="http://www.w3.org/2000/svg" viewBox="0 0 302.44 48.84"><defs><style>.cls-1{fill:#59595b;}.cls-2{fill:#d59f0f;}.cls-3{fill:#40739c;}.cls-4{fill:#5b9b98;}</style></defs><g id="Layer_2" data-name="Layer 2"><g id="Layer_1-2" data-name="Layer 1"><path class="cls-1" d="M84.94,18.63a14.32,14.32,0,0,0-7.13-1.89c-6.86,0-11.46,4.59-11.46,11.5s5,11.59,12.58,11.59a15.22,15.22,0,0,0,7.64-2.15l-1.2,4.81a34.14,34.14,0,0,1-6.4.6c-10.38,0-17.25-5.88-17.25-14.76s6.91-14.9,17.12-14.9a27.64,27.64,0,0,1,5.54.56Z"/><path class="cls-1" d="M89.62,39.31V17.47c0-1.81-.43-2.79-1.51-3.52h5.11l16.14,19.1V17.25c0-1.8-.35-2.57-1.5-3.3h6.39c-1.12.73-1.5,1.5-1.5,3.3V43.09L93,19.78V39.31c0,1.76.38,2.58,1.5,3.26h-6.4C89.27,41.89,89.62,41.07,89.62,39.31Z"/><path class="cls-1" d="M139.3,18.63a14.23,14.23,0,0,0-7.12-1.89c-6.87,0-11.46,4.59-11.46,11.5s5,11.59,12.57,11.59a15.16,15.16,0,0,0,7.64-2.15l-1.2,4.81a34,34,0,0,1-6.39.6c-10.39,0-17.25-5.88-17.25-14.76s6.9-14.9,17.12-14.9a27.78,27.78,0,0,1,5.54.56Z"/><path class="cls-2" d="M161.63,14.79a7.3,7.3,0,0,0-1.4-.61,6.81,6.81,0,0,0-2.23-.35,5.52,5.52,0,0,0-5.83,5.86c0,3.56,2.56,5.9,6.4,5.9a7.81,7.81,0,0,0,3.89-1.09l-.61,2.44a17.31,17.31,0,0,1-3.26.31c-5.28,0-8.78-3-8.78-7.52s3.52-7.58,8.72-7.58a14.78,14.78,0,0,1,2.82.28Z"/><path class="cls-2" d="M165.08,25.92l5-11.8a3.33,3.33,0,0,0,.28-1,.94.94,0,0,0-.35-.68h2.56L178,25.28a5.54,5.54,0,0,0,.44.86,3.56,3.56,0,0,0,.83.85h-3.76c.31-.31.42-.48.42-.77a2.65,2.65,0,0,0-.24-.85l-1.64-3.95h-5.18l-1.73,4.17a1.8,1.8,0,0,0-.15.7.85.85,0,0,0,.39.7h-3.25A2.26,2.26,0,0,0,165.08,25.92Zm8.33-6.12-1.9-4.66-1.93,4.66Z"/><path class="cls-2" d="M182.89,25.33V14.05H180.5a2.43,2.43,0,0,0-2.4,1l.37-2.67h11l.37,2.67a2.54,2.54,0,0,0-.83-.77,3.37,3.37,0,0,0-1.57-.26h-2.38V25.33a1.64,1.64,0,0,0,.76,1.66h-3.69C182.71,26.64,182.89,26.22,182.89,25.33Z"/><path class="cls-2" d="M189.54,25.92l5-11.8a3.33,3.33,0,0,0,.28-1,.94.94,0,0,0-.35-.68H197l5.46,12.87a5.54,5.54,0,0,0,.44.86,3.56,3.56,0,0,0,.83.85H200c.31-.31.42-.48.42-.77a2.65,2.65,0,0,0-.24-.85l-1.64-3.95h-5.18l-1.73,4.17a1.8,1.8,0,0,0-.15.7.85.85,0,0,0,.39.7h-3.25A2.21,2.21,0,0,0,189.54,25.92Zm8.33-6.12L196,15.14l-1.92,4.66Z"/><path class="cls-2" d="M205.41,24A6.93,6.93,0,0,0,210,25.59c2.16,0,3.58-1,3.58-2.62a2.08,2.08,0,0,0-.89-1.75,4.55,4.55,0,0,0-1.21-.59l-1.39-.5a13.61,13.61,0,0,1-2.69-1.21,3,3,0,0,1-1.62-2.7c0-2.58,2-4.07,5.55-4.07a15.56,15.56,0,0,1,2.71.26l.35.07.33,2.53a9.48,9.48,0,0,0-1.33-.74,6.66,6.66,0,0,0-2.45-.5c-1.77,0-2.91.78-2.91,2a1.79,1.79,0,0,0,.44,1.16,7.43,7.43,0,0,0,2.93,1.42c2,.7,2.53.94,3.23,1.55a3.55,3.55,0,0,1,1.2,2.77c0,2.76-2.44,4.57-6.2,4.57a17.47,17.47,0,0,1-3.89-.52Z"/><path class="cls-2" d="M222.07,25.33V14.05h-2.38a2.44,2.44,0,0,0-2.41,1l.37-2.67h11l.38,2.67a2.75,2.75,0,0,0-.83-.77,3.44,3.44,0,0,0-1.58-.26h-2.38V25.33A1.63,1.63,0,0,0,225,27h-3.7C221.89,26.64,222.07,26.22,222.07,25.33Z"/><path class="cls-2" d="M232.21,25.33V14.1c0-.92-.18-1.32-.77-1.69H235l1.25,0a9.32,9.32,0,0,1,2.77.29,3.36,3.36,0,0,1,2.38,3.3c0,1.83-1.09,3-3.19,3.45a3,3,0,0,1,.57.44,5.65,5.65,0,0,1,.46.48l.37.48s.11.15.26.37l2.87,3.91.26.35a3.22,3.22,0,0,0,.81.88,4,4,0,0,0,1.13.61h-3.58l-3.8-5.33a5.17,5.17,0,0,0-1.49-1.53,3,3,0,0,0-1.68-.37v5.57a1.64,1.64,0,0,0,.76,1.66h-3.69C232,26.64,232.21,26.22,232.21,25.33Zm3.32-7.06a7.58,7.58,0,0,0,1.61-.13A2.1,2.1,0,0,0,239,16a1.79,1.79,0,0,0-.7-1.49,4.39,4.39,0,0,0-2.69-.52l-1.2,0v4.18C234.94,18.27,235.18,18.27,235.53,18.27Z"/><path class="cls-2" d="M252.35,12.17c4.5,0,7.84,3.19,7.84,7.5a7.56,7.56,0,0,1-7.82,7.58,7.37,7.37,0,0,1-7.71-7.43A7.4,7.4,0,0,1,252.35,12.17Zm.07,13.48c3.21,0,5.46-2.46,5.46-6s-2.27-5.86-5.57-5.86-5.38,2.38-5.38,6C246.93,23.25,249.2,25.65,252.42,25.65Z"/><path class="cls-2" d="M264.13,25.33V14.1c0-.92-.18-1.32-.77-1.69H268c.53,0,.88,0,1.05,0a6.54,6.54,0,0,1,2.49.46,4,4,0,0,1,2.23,3.67c0,2.56-2.05,4.33-5,4.33a7.5,7.5,0,0,1-2.45-.41v4.85a1.63,1.63,0,0,0,.77,1.66h-3.7C264,26.64,264.13,26.22,264.13,25.33Zm4.06-6c1.9,0,3.17-1.07,3.17-2.71a2.35,2.35,0,0,0-1.68-2.38,12.57,12.57,0,0,0-3.39-.22V19A4.81,4.81,0,0,0,268.19,19.34Z"/><path class="cls-2" d="M277.29,25.33V14.1c0-.92-.17-1.32-.76-1.69h3.69a1.67,1.67,0,0,0-.77,1.69v4.19H286V14.1c0-.92-.17-1.32-.76-1.69H289a1.67,1.67,0,0,0-.77,1.69V25.33A1.63,1.63,0,0,0,289,27h-3.69c.59-.35.76-.77.76-1.66V19.91h-6.58v5.42a1.63,1.63,0,0,0,.77,1.66h-3.69C277.12,26.64,277.29,26.22,277.29,25.33Z"/><path class="cls-2" d="M299.16,25.35c1.73,0,2.28-.13,3.15-.79l.13-.11L301.76,27h-9.7c.59-.35.77-.77.77-1.66V14.1c0-.92-.18-1.32-.77-1.69h9.2l.26,2.28-.08-.07a2.8,2.8,0,0,0-2.06-.57H295v4h4.41c.77,0,.88,0,1.14-.13l.11,2.28a1.57,1.57,0,0,0-.66-.4,4.16,4.16,0,0,0-1.26-.11H295v5.62Z"/><path class="cls-3" d="M151.65,34c0-1.39,1.16-2.2,3.11-2.2a10,10,0,0,1,2,.22l.24,1.5a4.38,4.38,0,0,0-2.14-.59c-1,0-1.64.44-1.64,1.15a1.18,1.18,0,0,0,1,1.14,4.32,4.32,0,0,0,1.18.1l0,1.18h-.44c-1.79,0-2.89,1-2.89,2.48s1.19,2.55,3,2.55a2.81,2.81,0,0,0,3.09-2.71,1.9,1.9,0,0,0-.5-1.36,2.7,2.7,0,0,0-1.57-.71l.44-1.18.44,0c.5,0,1.19.06,1.87.06h.85c.66,0,1,0,1.78-.11L161,36.87c-.64,0-1.22-.08-1.87-.08a4.65,4.65,0,0,0-.48,0,2.78,2.78,0,0,1,.86,2.07c0,2.17-2,3.82-4.53,3.82s-4.57-1.54-4.57-3.68a3.3,3.3,0,0,1,2.47-3.22A2,2,0,0,1,151.65,34Z"/><path class="cls-4" d="M166.52,41.3v-8A1.36,1.36,0,0,0,166,32h1.87l5.91,7V33.22c0-.66-.12-.94-.55-1.21h2.34a1.21,1.21,0,0,0-.55,1.21v9.47l-7.23-8.54V41.3a1.18,1.18,0,0,0,.55,1.2H166C166.39,42.24,166.52,42,166.52,41.3Z"/><path class="cls-4" d="M176.56,41.73l3.6-8.49a2.49,2.49,0,0,0,.2-.74.67.67,0,0,0-.25-.49H182l3.93,9.26a3.74,3.74,0,0,0,.31.61,2.59,2.59,0,0,0,.6.62h-2.7c.22-.22.3-.35.3-.55a1.88,1.88,0,0,0-.18-.62L183,38.49h-3.72l-1.24,3a1.3,1.3,0,0,0-.11.5.61.61,0,0,0,.28.51H175.9A1.72,1.72,0,0,0,176.56,41.73Zm6-4.41L181.18,34l-1.38,3.34Z"/><path class="cls-4" d="M188.74,41.3V33.19H187a1.72,1.72,0,0,0-1.72.74l.26-1.92h7.91l.27,1.92a1.88,1.88,0,0,0-.6-.55,2.4,2.4,0,0,0-1.13-.19h-1.72V41.3a1.19,1.19,0,0,0,.55,1.2h-2.65C188.61,42.24,188.74,42,188.74,41.3Z"/><path class="cls-4" d="M195.4,41.3V33.22c0-.66-.12-.94-.55-1.21h2.66a1.19,1.19,0,0,0-.55,1.21V41.3a1.18,1.18,0,0,0,.55,1.2h-2.66C195.28,42.24,195.4,42,195.4,41.3Z"/><path class="cls-4" d="M204.71,31.84a5.38,5.38,0,0,1,5.65,5.39,5.44,5.44,0,0,1-5.63,5.46,5.43,5.43,0,1,1,0-10.85Zm0,9.7c2.31,0,3.93-1.78,3.93-4.31a3.93,3.93,0,0,0-4-4.21c-2.33,0-3.87,1.71-3.87,4.34A3.91,3.91,0,0,0,204.76,41.54Z"/><path class="cls-4" d="M212.56,41.3v-8A1.36,1.36,0,0,0,212,32h1.87l5.91,7V33.22c0-.66-.13-.94-.55-1.21h2.34a1.19,1.19,0,0,0-.55,1.21v9.47l-7.23-8.54V41.3a1.18,1.18,0,0,0,.55,1.2H212C212.43,42.24,212.56,42,212.56,41.3Z"/><path class="cls-4" d="M222.59,41.73l3.6-8.49a2.29,2.29,0,0,0,.21-.74.67.67,0,0,0-.25-.49H228l3.93,9.26a3.08,3.08,0,0,0,.31.61,2.41,2.41,0,0,0,.6.62h-2.7a.72.72,0,0,0,.29-.55,1.81,1.81,0,0,0-.17-.62l-1.18-2.84h-3.72l-1.25,3a1.51,1.51,0,0,0-.11.5.63.63,0,0,0,.29.51h-2.35A1.6,1.6,0,0,0,222.59,41.73Zm6-4.41L227.22,34l-1.39,3.34Z"/><path class="cls-4" d="M234.14,41.3V33.22c0-.66-.13-.94-.55-1.21h2.65a1.19,1.19,0,0,0-.55,1.21v8.1h3.63a3.72,3.72,0,0,0,1.15-.18,2.56,2.56,0,0,0,.91-.5l-.61,1.86h-7.18C234,42.24,234.14,42,234.14,41.3Z"/><path class="cls-4" d="M254.83,33.72a5.4,5.4,0,0,0-1-.44,5,5,0,0,0-1.6-.25,4,4,0,0,0-4.2,4.22c0,2.56,1.84,4.24,4.61,4.24a5.53,5.53,0,0,0,2.79-.79L255,42.47a13.08,13.08,0,0,1-2.34.22c-3.8,0-6.32-2.16-6.32-5.41s2.53-5.46,6.27-5.46a10,10,0,0,1,2,.21Z"/><path class="cls-4" d="M257.09,41.3V33.22c0-.66-.13-.94-.55-1.21h2.66a1.19,1.19,0,0,0-.55,1.21v8.1h3.63a3.83,3.83,0,0,0,1.15-.18,2.74,2.74,0,0,0,.91-.5l-.61,1.86h-7.19C257,42.24,257.09,42,257.09,41.3Z"/><path class="cls-4" d="M265.61,41.73l3.6-8.49a2.49,2.49,0,0,0,.2-.74.67.67,0,0,0-.25-.49H271l3.93,9.26a3.08,3.08,0,0,0,.31.61,2.41,2.41,0,0,0,.6.62h-2.7c.22-.22.3-.35.3-.55a1.88,1.88,0,0,0-.18-.62l-1.18-2.84h-3.72l-1.24,3a1.3,1.3,0,0,0-.11.5.61.61,0,0,0,.28.51H265A1.72,1.72,0,0,0,265.61,41.73Zm6-4.41L270.23,34l-1.39,3.34Z"/><path class="cls-4" d="M277.15,41.3V33.22c0-.66-.13-.94-.55-1.21h2.65a1.19,1.19,0,0,0-.55,1.21V41.3a1.18,1.18,0,0,0,.55,1.2H276.6C277,42.24,277.15,42,277.15,41.3Z"/><path class="cls-4" d="M281,41.29l1-7.82a4.55,4.55,0,0,0,0-.61,1,1,0,0,0-.44-.85h2.12l3.21,7.25L290,32h2.09a1,1,0,0,0-.44.9,3.06,3.06,0,0,0,0,.47l1,7.76a1.81,1.81,0,0,0,.21.85,1.78,1.78,0,0,0,.4.51h-2.53a1,1,0,0,0,.4-.93,3.39,3.39,0,0,0,0-.47l-.88-6.7-3.6,8.29L283,34.4l-.86,7a1.42,1.42,0,0,0,0,.3,1,1,0,0,0,.39.82h-2.21A1.39,1.39,0,0,0,281,41.29Z"/><path class="cls-4" d="M294.14,40.31a5,5,0,0,0,3.32,1.18c1.56,0,2.58-.74,2.58-1.89a1.46,1.46,0,0,0-.65-1.25,3.44,3.44,0,0,0-.86-.43l-1-.36a10.5,10.5,0,0,1-1.93-.86,2.16,2.16,0,0,1-1.16-2c0-1.86,1.44-2.93,4-2.93a10.94,10.94,0,0,1,1.95.19l.25.05.24,1.82a5.93,5.93,0,0,0-1-.53,4.87,4.87,0,0,0-1.76-.37c-1.28,0-2.1.57-2.1,1.45a1.24,1.24,0,0,0,.32.83,5.21,5.21,0,0,0,2.11,1,5.94,5.94,0,0,1,2.32,1.11,2.6,2.6,0,0,1,.87,2c0,2-1.76,3.29-4.47,3.29a12.77,12.77,0,0,1-2.8-.38Z"/><path class="cls-4" d="M26.44,27.58c4.16-4.8,5.55-10.86,14.72-11.5-9-1.5-12.27,4-16.58,8.2l.21.41C25.31,25.72,25.87,26.61,26.44,27.58Z"/><path class="cls-4" d="M41,26.19C33.17,37,26.07,50.54,13.47,44.62L13,44.07c3.23,4.11,9.06,6.65,16.17,3,11.9-6.34,15.42-24.45,27.66-25.21C56.5,21.37,46.62,19.3,41,26.19Z"/><path class="cls-4" d="M29,33.3h0a8.79,8.79,0,0,1,.3,2.35c0,.24,0,.48,0,.73,6.88-6.63,5.42-15.88,18.8-17.63C35.94,17.49,33.06,25,28,30.55a26.34,26.34,0,0,1,1,2.72Z"/><path class="cls-4" d="M33.77,14.49c-5.43-.43-8.33,2.1-11,5,.27.95.54,1.78.81,2.52C25.75,18.52,27.79,15.22,33.77,14.49Z"/><path class="cls-3" d="M19.43,43.71c-7.51,0-9-6.71-8.07-10,2.37-7.89,5.56-6.6,8.07-24,2.3,17.65,5.7,16.12,8.17,24C28.51,37,27.14,43.71,19.43,43.71Z"/><path class="cls-2" d="M13.08,10.92C10.55,5.8,12.53,2.8,12.75,0,9.14,3.07,5,5.49,6.44,9.91c.73,2.28,1.89,2.77,2.35,5.39,1.2,6.84-6.37,9.27-2.56,17C0,24.77,9.16,18.17,4.65,13.41,4.23,17.6,0,23.73,0,28c0,4.78,4,10.43,11.94,15.4A27.53,27.53,0,0,1,9,38C7.56,33,10.81,29.7,12.3,26.68,16.14,19.06,15.13,15.09,13.08,10.92Z"/></g></g></svg>