<svg id="Layer_1" data-name="Layer 1" xmlns="http://www.w3.org/2000/svg" viewBox="0 0 573.5 235"><defs><style>.cls-1{fill:#425064;}.cls-2{fill:#d4a029;}.cls-3{fill:#fff;}</style></defs><path class="cls-1" d="M81.6,142.9H67.1V73.3H107V85.4H81.6v17.9h23.6v12.1H81.6Z" transform="translate(-0.8)"/><path class="cls-1" d="M129.5,142.9H115V68.8h14.5Z" transform="translate(-0.8)"/><path class="cls-1" d="M188.6,116.2c0,8.7-2.3,15.5-6.8,20.3s-11,7.4-19.1,7.4a26.4,26.4,0,0,1-13.6-3.4,22,22,0,0,1-9-9.6,32.5,32.5,0,0,1-3.1-14.7c0-8.7,2.3-15.5,6.8-20.3s10.9-7.2,19.2-7.2A27,27,0,0,1,176.5,92a22,22,0,0,1,9,9.6A31.7,31.7,0,0,1,188.6,116.2Zm-36.8,0c0,5.3.9,9.3,2.6,12s4.6,4,8.5,4,6.6-1.3,8.3-4,2.6-6.7,2.6-12-.9-9.2-2.6-11.9-4.5-3.9-8.4-3.9-6.7,1.3-8.4,3.9S151.8,110.9,151.8,116.2Z" transform="translate(-0.8)"/><path class="cls-1" d="M244.5,116.2c0,8.7-2.3,15.5-6.8,20.3s-11,7.4-19.1,7.4a26.7,26.7,0,0,1-13.6-3.4,22,22,0,0,1-9-9.6,32.5,32.5,0,0,1-3.1-14.7c0-8.7,2.3-15.5,6.8-20.3s10.9-7.2,19.2-7.2A27,27,0,0,1,232.4,92a22,22,0,0,1,9,9.6A31.7,31.7,0,0,1,244.5,116.2Zm-36.8,0c0,5.3.9,9.3,2.6,12s4.6,4,8.5,4,6.6-1.3,8.3-4,2.6-6.7,2.6-12-.9-9.2-2.6-11.9-4.5-3.9-8.4-3.9-6.7,1.3-8.4,3.9S207.7,110.9,207.7,116.2Z" transform="translate(-0.8)"/><path class="cls-1" d="M268.9,143.9a17.2,17.2,0,0,1-14.7-7.3c-3.6-4.9-5.4-11.6-5.4-20.2s1.8-15.5,5.5-20.4,8.6-7.3,15-7.3,11.8,2.6,15.3,7.8h.5A62.6,62.6,0,0,1,284,85.9V68.8h14.6v74.1H287.4l-2.8-6.9H284C280.7,141.3,275.7,143.9,268.9,143.9Zm5.1-11.6c3.7,0,6.4-1.1,8.2-3.2s2.6-5.9,2.8-11v-1.6c0-5.7-.9-9.8-2.6-12.3s-4.7-3.7-8.6-3.7a8.6,8.6,0,0,0-7.6,4.1c-1.8,2.8-2.7,6.7-2.7,12s.9,9.2,2.7,11.8A8.9,8.9,0,0,0,274,132.3Z" transform="translate(-0.8)"/><path class="cls-1" d="M393.1,142.9H374.3L344,90.2h-.4c.6,9.4.9,16,.9,20v32.7H331.3V73.3h18.6l30.2,52.1h.4c-.5-9-.7-15.4-.7-19.1v-33h13.3Z" transform="translate(-0.8)"/><path class="cls-1" d="M429,143.9c-8.5,0-15.2-2.4-20.1-7.1s-7.2-11.4-7.2-20.1,2.2-15.8,6.7-20.7,10.6-7.3,18.5-7.3,13.4,2.1,17.6,6.4,6.3,10.2,6.3,17.8v7H416.4c.2,4.1,1.4,7.4,3.7,9.7s5.5,3.5,9.6,3.5a43.7,43.7,0,0,0,9.1-1,51.4,51.4,0,0,0,9-3.2v11.2a33.1,33.1,0,0,1-8.2,2.8A45.9,45.9,0,0,1,429,143.9ZM427,99a9.2,9.2,0,0,0-7.2,2.9q-2.7,3-3,8.4h20.3a12.1,12.1,0,0,0-2.8-8.4A9.6,9.6,0,0,0,427,99Z" transform="translate(-0.8)"/><path class="cls-1" d="M501.9,142.9l-4.1-18.6-5.6-23.5h-.3l-9.7,42.1H466.6L451.4,89.7h14.5l6.1,23.6q1.5,6.3,3,17.4h.3a113,113,0,0,1,1.7-11.4l.8-4.1,6.5-25.5h16l6.3,25.5c.1.7.3,1.7.6,3.1s.5,2.8.8,4.4l.6,4.5a17.7,17.7,0,0,1,.4,3.5h.3c.3-2.3.8-5.4,1.5-9.4s1.3-6.6,1.6-8l6.4-23.6H533l-15.3,53.2Z" transform="translate(-0.8)"/><path class="cls-1" d="M574.2,127.1c0,5.5-1.9,9.6-5.6,12.5s-9.5,4.3-17.1,4.3a56.6,56.6,0,0,1-9.9-.8,35.4,35.4,0,0,1-7.6-2.3v-12a50.9,50.9,0,0,0,9.1,3.2,39.8,39.8,0,0,0,8.9,1.3c5.3,0,7.9-1.6,7.9-4.6a3.7,3.7,0,0,0-1-2.8,14.7,14.7,0,0,0-3.7-2.4c-1.7-.9-4-2-6.8-3.2a39.6,39.6,0,0,1-9-4.8,11.7,11.7,0,0,1-4.2-5,16.2,16.2,0,0,1-1.3-7c0-4.7,1.8-8.4,5.5-10.9s8.8-3.9,15.6-3.9a44.3,44.3,0,0,1,18.7,4.2l-4.4,10.4-7.5-2.8a24.5,24.5,0,0,0-7.1-1.1c-4.3,0-6.4,1.2-6.4,3.5a4.2,4.2,0,0,0,2.1,3.4c1.3,1,4.4,2.4,9,4.2a41.9,41.9,0,0,1,9.2,4.8,14.6,14.6,0,0,1,4.3,5A15.9,15.9,0,0,1,574.2,127.1Z" transform="translate(-0.8)"/><path class="cls-1" d="M306.3,230.7H287.6L257.3,178h-.5c.6,9.3.9,15.9.9,19.9v32.8H244.5V161h18.7l30.2,52.2h.3c-.4-9.1-.7-15.5-.7-19.2V161h13.3Z" transform="translate(-0.8)"/><path class="cls-1" d="M366.6,204c0,8.6-2.3,15.4-6.8,20.3s-11,7.3-19.1,7.3a27.1,27.1,0,0,1-13.6-3.3,22.8,22.8,0,0,1-9-9.7A32.3,32.3,0,0,1,315,204c0-8.7,2.3-15.5,6.8-20.3s10.9-7.3,19.1-7.3a26.2,26.2,0,0,1,13.6,3.4,22.3,22.3,0,0,1,9,9.5A32.5,32.5,0,0,1,366.6,204Zm-36.8,0c0,5.2.9,9.2,2.6,11.9s4.5,4.1,8.4,4.1,6.7-1.4,8.4-4.1,2.6-6.6,2.6-11.9-.9-9.3-2.6-11.9-4.5-4-8.5-4-6.6,1.4-8.3,4S329.8,198.7,329.8,204Z" transform="translate(-0.8)"/><path class="cls-1" d="M422.5,204c0,8.6-2.3,15.4-6.8,20.3s-11,7.3-19.1,7.3a27.1,27.1,0,0,1-13.6-3.3,22.8,22.8,0,0,1-9-9.7,32.3,32.3,0,0,1-3.1-14.6c0-8.7,2.3-15.5,6.8-20.3s10.9-7.3,19.1-7.3a26.2,26.2,0,0,1,13.6,3.4,22.3,22.3,0,0,1,9,9.5A32.5,32.5,0,0,1,422.5,204Zm-36.8,0c0,5.2.9,9.2,2.6,11.9s4.5,4.1,8.4,4.1,6.7-1.4,8.4-4.1,2.6-6.6,2.6-11.9-.9-9.3-2.6-11.9-4.5-4-8.4-4-6.7,1.4-8.4,4S385.7,198.7,385.7,204Z" transform="translate(-0.8)"/><path class="cls-1" d="M479.2,230.7H464.7V199.6c0-3.9-.7-6.7-2.1-8.7s-3.5-2.9-6.5-2.9-7,1.4-8.8,4.1-2.7,7.2-2.7,13.5v25.1H430V177.4h11.1l2,6.8h.8a15.2,15.2,0,0,1,6.7-5.8,23,23,0,0,1,9.7-2q9.3,0,14.1,5.1c3.2,3.3,4.8,8.1,4.8,14.5Z" transform="translate(-0.8)"/><path class="cls-2" d="M167.2,234.9c21.1-11.7,43.7-16.3,66.6-16.9,2.4-.1,2.4-6.9,0-6.8a149,149,0,0,0-67.6,18.9,2.7,2.7,0,0,0-1.3,3c.2,1.2,1.4,2.3,2.3,1.8Z" transform="translate(-0.8)"/><path class="cls-1" d="M224.6,185.2c-1,.2-1.5,1.7-1.5,1.7-2.5,7.9-5.6,14.8-7.9,15.2a4.6,4.6,0,0,1-5.3-3.5c-.3-1.8.5-13.2,1.4-22.6l6.3-1.2c1.2-.3,2.1-3.7,1.9-4.7a.8.8,0,0,0-1-.6l-6.8,1.3.8-7.6a12.7,12.7,0,0,0-.1-2c-.2-1.4-6-3.4-7.6-3.1s-1.2.9-1.3,2.1-.6,6.6-1,12.4l-2.3.4c-1.2.3-2,3.7-1.8,4.7a.9.9,0,0,0,1,.6l2.7-.5c-.4,4.9-.7,10.1-.9,14.5-2.4,7.3-5.3,13.6-7.5,14a3,3,0,0,1-2.6-1.8c-1.2-6.3,1.6-20.4,1.1-23.2s-5.2-1.6-7.3-1.2a14.5,14.5,0,0,0-11.2-2.7c-7.2,1.3-13.2,20.6-11.2,31,.8,4.2,8.3,7.9,12,7.2s7.7-6.9,7.7-6.9c1.1,2.1,8.2,3.9,11.7,3.2s5.8-3.7,7.9-7.9c2.2,3,8.9,4.6,13.6,3.7s9-9.1,11.8-17.9a7.9,7.9,0,0,0,.5-2.9C227.5,185.9,225.6,185,224.6,185.2Zm-43.2,15.2c-1.3,5-4.7,8.5-6.3,8.8a3.2,3.2,0,0,1-3.4-2.6c-1.3-6.9,2.2-22.7,6.1-23.5,1.3-.2,4.5.2,4.7,1.5S182.3,196.8,181.4,200.4Z" transform="translate(-0.8)"/><path class="cls-2" d="M283.7,38.6C186.1,16.8,103.3,99.9,5.7,78.1c5-4.2,9.9-8.8,14.7-13.7C13.9,57.6,7.4,50.6.8,43.2,98.4,65,181.1-18.1,278.7,3.7c-5.5,4.4-10.9,9.3-16.3,14.5Q273.1,27.8,283.7,38.6Z" transform="translate(-0.8)"/><path class="cls-3" d="M63.5,70.3c-4.2.6-8.4,1-12.6,1.3l-.4-3.1,3.6-4.6a20,20,0,0,0,2-2.8,6.6,6.6,0,0,0,.6-1.2,2.1,2.1,0,0,0,.1-1.1,1,1,0,0,0-.6-1,2.3,2.3,0,0,0-1.3-.3,3.4,3.4,0,0,0-1.5.7,5.7,5.7,0,0,0-1.7,1.5l-3-2.8a11.4,11.4,0,0,1,2-1.9,5.6,5.6,0,0,1,1.9-.9,7.1,7.1,0,0,1,2.3-.5,6.4,6.4,0,0,1,3.1.2,5.9,5.9,0,0,1,2.3,1.4,5.3,5.3,0,0,1,1.1,2.4,6.1,6.1,0,0,1,0,1.9,6.4,6.4,0,0,1-.6,1.8,13,13,0,0,1-1.1,1.9q-.7,1-3.3,3.9h0l6.6-.8Z" transform="translate(-0.8)"/><path class="cls-3" d="M79.2,58.7c.5,3.1.3,5.4-.5,7a5.8,5.8,0,0,1-4.4,3.1,5.2,5.2,0,0,1-4.9-1.4c-1.3-1.3-2.1-3.5-2.5-6.4s-.3-5.4.5-7a5.7,5.7,0,0,1,4.4-2.9,5,5,0,0,1,4.9,1.3C78,53.7,78.8,55.8,79.2,58.7Zm-7.7,1.5a18.6,18.6,0,0,0,.9,4c.4.7.8,1,1.4.9a1.4,1.4,0,0,0,1-1.4,12.2,12.2,0,0,0-.2-4.1,11.1,11.1,0,0,0-.9-3.9,1.3,1.3,0,0,0-1.4-.9,1.3,1.3,0,0,0-1,1.3A12.2,12.2,0,0,0,71.5,60.2Z" transform="translate(-0.8)"/><path class="cls-3" d="M97.1,63.3Q91,65,84.8,66.3l-.4-3c1.1-1.8,2.3-3.5,3.5-5.2s1.7-2.6,2-3.2a4.8,4.8,0,0,0,.5-1.4,2,2,0,0,0,.1-1.1,1.1,1.1,0,0,0-.6-.9,1.6,1.6,0,0,0-1.2-.1,2.9,2.9,0,0,0-1.6.9,10,10,0,0,0-1.6,1.8l-3-2.4a11.3,11.3,0,0,1,2-2.2,8.3,8.3,0,0,1,1.8-1.3l2.3-.8a6.6,6.6,0,0,1,3.1-.2,4.2,4.2,0,0,1,2.2,1.1A4.5,4.5,0,0,1,95,50.6a6.4,6.4,0,0,1-.6,3.8,9,9,0,0,1-1.1,2.2c-.5.7-1.5,2.2-3.2,4.4h0l6.5-1.7Z" transform="translate(-0.8)"/><path class="cls-3" d="M111.6,59.1,107,60.5l-1.3-9.2c-.1-1.1-.3-2.1-.3-3l-.9,1.4-1.7,2.2L100,49.6l5.1-6.5,4.1-1.3Z" transform="translate(-0.8)"/><path class="cls-3" d="M138.3,44.9a6.5,6.5,0,0,1-.4,3.1,7.3,7.3,0,0,1-2,2.7,12.5,12.5,0,0,1-3.4,1.9l-2.9.7a10.7,10.7,0,0,1-2.5-.1l-.6-4.1a14.1,14.1,0,0,0,2.9.1,10.1,10.1,0,0,0,2.6-.4,3.3,3.3,0,0,0,1.4-.9,1.5,1.5,0,0,0,.4-1.1c-.1-.2-.1-.4-.3-.5s-.4-.3-.7-.4l-2.4-.3a10.5,10.5,0,0,1-2.6-.7,3.6,3.6,0,0,1-1.5-1.2,6.5,6.5,0,0,1-.7-2.1,5.6,5.6,0,0,1,1.2-4.3,9.7,9.7,0,0,1,4.4-2.9,14.3,14.3,0,0,1,5.5-.5l-.9,4a9.2,9.2,0,0,0-4.2.3,2.3,2.3,0,0,0-1.2.8.9.9,0,0,0-.3.9.7.7,0,0,0,.6.7,9.6,9.6,0,0,0,3,.5,6.3,6.3,0,0,1,3.3,1.2A4,4,0,0,1,138.3,44.9Z" transform="translate(-0.8)"/><path class="cls-3" d="M154.3,44.9l-10,3.4-2.4-17.2,9.9-3.4.6,3.8-5.5,1.8.4,2.7,5.1-1.7.5,3.7-5,1.7.4,3.3,5.4-1.9Z" transform="translate(-0.8)"/><path class="cls-3" d="M170.3,39.7c-.5-1-.9-2-1.3-3l-5.5,1.8c-.1,1.2-.2,2.3-.4,3.5l-4.9,1.6,3-19.1,6-1.9c2.7,5.2,5.4,10.4,8,15.6Zm-2.8-6.5c-.4-.8-.7-1.7-1.1-2.6s-.6-1.3-1-2.2-.6-1.6-.8-2a19.7,19.7,0,0,1-.1,2.1l-.6,5.9Z" transform="translate(-0.8)"/><path class="cls-3" d="M190.1,28.4a5.5,5.5,0,0,1-.4,3.1,7,7,0,0,1-2,2.6,10.7,10.7,0,0,1-3.4,1.6,12.5,12.5,0,0,1-2.9.6,10.7,10.7,0,0,1-2.5-.1l-.6-4.2a14.3,14.3,0,0,0,2.9.3,10.1,10.1,0,0,0,2.6-.4,2.7,2.7,0,0,0,1.5-.8,1,1,0,0,0,.3-1,.9.9,0,0,0-.3-.6l-.7-.3-2.4-.5a10.1,10.1,0,0,1-2.6-.8,3.2,3.2,0,0,1-1.5-1.3,5.2,5.2,0,0,1-.7-2,5.6,5.6,0,0,1,1.2-4.3,8.4,8.4,0,0,1,4.4-2.6,13.1,13.1,0,0,1,5.6-.3l-.9,4a10.3,10.3,0,0,0-4.3,0,2.2,2.2,0,0,0-1.2.7.9.9,0,0,0-.3.9c0,.4.2.6.6.8l3,.7a6.4,6.4,0,0,1,3.4,1.3A4.2,4.2,0,0,1,190.1,28.4Z" transform="translate(-0.8)"/><path class="cls-3" d="M211,20.2a9.8,9.8,0,0,1-1.2,7c-1.2,1.8-3.1,2.9-5.9,3.5a7.9,7.9,0,0,1-6.4-.8c-1.7-1.2-2.7-3.2-3.1-6.1a10.1,10.1,0,0,1,1.2-7.1,8.6,8.6,0,0,1,5.8-3.7c2.8-.6,4.9-.3,6.5,1S210.6,17.3,211,20.2Zm-11.8,2.4q.8,5.1,4.2,4.2a3,3,0,0,0,2.4-1.7,6.4,6.4,0,0,0,.3-4,6,6,0,0,0-1.4-3.6,2.8,2.8,0,0,0-2.7-.7C199.7,17.3,198.8,19.3,199.2,22.6Z" transform="translate(-0.8)"/><path class="cls-3" d="M234.6,25.8c-2.1.1-4.1.3-6.2.6l-8-11.4h-.1c.4,1.9.7,3.4.8,4.4l1.1,7.7-4.1.7-2.4-17.3,6-.8c2.7,3.7,5.4,7.4,8,11.2h.1c-.4-1.7-.6-3.1-.8-4.2l-1.1-7.8,4.2-.3Z" transform="translate(-0.8)"/></svg>