<svg id="Layer_1" data-name="Layer 1" xmlns="http://www.w3.org/2000/svg" viewBox="0 0 900 147.3"><defs><style>.cls-1{fill:#415064;}.cls-2{fill:#d4a029;}.cls-3{fill:#fff;}</style></defs><path class="cls-1" d="M80.9,144.3H66.3V74.7h40V86.8H80.9v17.9h23.6v12.1H80.9Z" transform="translate(0 -1.3)"/><path class="cls-1" d="M128.8,144.3H114.3V70.2h14.5Z" transform="translate(0 -1.3)"/><path class="cls-1" d="M188,117.6q0,13.1-6.9,20.4c-4.6,4.8-10.9,7.3-19.1,7.3a26,26,0,0,1-13.5-3.4,22,22,0,0,1-9-9.6,32.5,32.5,0,0,1-3.2-14.7c0-8.7,2.3-15.5,6.8-20.3s11-7.2,19.2-7.2a27,27,0,0,1,13.5,3.3,22,22,0,0,1,9,9.6A31.8,31.8,0,0,1,188,117.6Zm-36.9,0c0,5.3.9,9.3,2.6,12s4.6,4,8.5,4,6.7-1.3,8.4-4,2.5-6.7,2.5-12-.9-9.2-2.6-11.9-4.5-3.9-8.4-3.9-6.7,1.3-8.4,3.9S151.1,112.3,151.1,117.6Z" transform="translate(0 -1.3)"/><path class="cls-1" d="M243.9,117.6q0,13.1-6.9,20.4c-4.5,4.8-10.9,7.3-19.1,7.3a26,26,0,0,1-13.5-3.4,22,22,0,0,1-9-9.6,32.5,32.5,0,0,1-3.1-14.7c0-8.7,2.2-15.5,6.8-20.3s10.9-7.2,19.1-7.2a27.7,27.7,0,0,1,13.6,3.3,22,22,0,0,1,9,9.6A31.7,31.7,0,0,1,243.9,117.6Zm-36.8,0c0,5.3.8,9.3,2.6,12s4.5,4,8.4,4,6.7-1.3,8.4-4,2.5-6.7,2.5-12-.8-9.2-2.5-11.9-4.6-3.9-8.5-3.9-6.6,1.3-8.4,3.9S207.1,112.3,207.1,117.6Z" transform="translate(0 -1.3)"/><path class="cls-1" d="M268.3,145.3c-6.3,0-11.2-2.4-14.8-7.3s-5.3-11.6-5.3-20.2,1.8-15.5,5.4-20.4,8.7-7.3,15.1-7.3,11.8,2.6,15.3,7.8h.5a62.6,62.6,0,0,1-1.1-10.7v-17H298v74.1H286.8l-2.8-6.9h-.6C280.1,142.7,275.1,145.3,268.3,145.3Zm5.1-11.6c3.7,0,6.4-1.1,8.2-3.2s2.6-5.9,2.8-11v-1.6c0-5.7-.9-9.8-2.6-12.3s-4.7-3.7-8.6-3.7a8.6,8.6,0,0,0-7.6,4.1q-2.7,4.1-2.7,12c0,5.2.9,9.2,2.7,11.8A8.9,8.9,0,0,0,273.4,133.7Z" transform="translate(0 -1.3)"/><path class="cls-1" d="M392.5,144.3H373.7L343.4,91.6H343c.6,9.3.9,16,.9,20v32.7H330.7V74.7h18.6l30.3,52.1h.3c-.5-9-.7-15.4-.7-19.2V74.7h13.3Z" transform="translate(0 -1.3)"/><path class="cls-1" d="M428.5,145.3c-8.6,0-15.3-2.4-20.1-7.1s-7.2-11.4-7.2-20.1,2.2-15.8,6.7-20.7,10.6-7.3,18.5-7.3,13.4,2.1,17.6,6.4,6.3,10.2,6.3,17.8v7H415.9c.2,4.2,1.4,7.4,3.7,9.7s5.5,3.5,9.6,3.5a44.5,44.5,0,0,0,9.1-1,54.4,54.4,0,0,0,9-3.2v11.2a38,38,0,0,1-8.2,2.9A53,53,0,0,1,428.5,145.3Zm-2-44.9a9.6,9.6,0,0,0-7.3,2.9,14.5,14.5,0,0,0-3,8.3h20.4a12.1,12.1,0,0,0-2.8-8.3A9.6,9.6,0,0,0,426.5,100.4Z" transform="translate(0 -1.3)"/><path class="cls-1" d="M501.4,144.3l-4.1-18.6-5.6-23.5h-.3l-9.7,42.1H466.1L450.9,91.1h14.5l6.1,23.5c1,4.3,2,10.1,3,17.5h.3a113,113,0,0,1,1.7-11.4l.8-4.1,6.5-25.5h16l6.3,25.5c.1.7.3,1.7.6,3.1s.5,2.8.8,4.4.5,3,.7,4.5a27.3,27.3,0,0,1,.3,3.5h.3c.3-2.2.8-5.4,1.5-9.4s1.3-6.7,1.6-8.1l6.4-23.5h14.2l-15.3,53.2Z" transform="translate(0 -1.3)"/><path class="cls-1" d="M573.8,128.5c0,5.5-1.9,9.6-5.7,12.5s-9.5,4.3-17,4.3a55,55,0,0,1-9.9-.8,36.4,36.4,0,0,1-7.7-2.3v-12a50.9,50.9,0,0,0,9.1,3.2,40.6,40.6,0,0,0,8.9,1.3c5.3,0,8-1.6,8-4.6a3.8,3.8,0,0,0-1.1-2.8,15.7,15.7,0,0,0-3.6-2.4c-1.7-.9-4-2-6.9-3.2a39.6,39.6,0,0,1-9-4.8,13.3,13.3,0,0,1-4.2-5,16.2,16.2,0,0,1-1.3-7,12.7,12.7,0,0,1,5.5-11c3.7-2.5,8.9-3.8,15.6-3.8a44,44,0,0,1,18.7,4.2l-4.4,10.4c-2.6-1.1-5.1-2-7.4-2.8a25,25,0,0,0-7.1-1.1c-4.3,0-6.5,1.2-6.5,3.5a4.2,4.2,0,0,0,2.1,3.4,55.5,55.5,0,0,0,9.1,4.2,40.8,40.8,0,0,1,9.1,4.8,12.7,12.7,0,0,1,4.3,5A15.9,15.9,0,0,1,573.8,128.5Z" transform="translate(0 -1.3)"/><path class="cls-1" d="M727,144.3H708.3L678,91.6h-.5c.6,9.3.9,16,.9,20v32.7H665.2V74.7h18.7l30.2,52.1h.4c-.5-9-.7-15.4-.7-19.2V74.7H727Z" transform="translate(0 -1.3)"/><path class="cls-1" d="M787.4,117.6q0,13.1-6.9,20.4c-4.6,4.8-10.9,7.3-19.1,7.3a26,26,0,0,1-13.5-3.4,22,22,0,0,1-9-9.6,32.5,32.5,0,0,1-3.2-14.7c0-8.7,2.3-15.5,6.8-20.3s11-7.2,19.2-7.2a27,27,0,0,1,13.5,3.3,22,22,0,0,1,9,9.6A31.8,31.8,0,0,1,787.4,117.6Zm-36.9,0c0,5.3.9,9.3,2.6,12s4.6,4,8.5,4,6.6-1.3,8.3-4,2.6-6.7,2.6-12-.9-9.2-2.6-11.9-4.5-3.9-8.4-3.9-6.7,1.3-8.4,3.9S750.5,112.3,750.5,117.6Z" transform="translate(0 -1.3)"/><path class="cls-1" d="M843.3,117.6q0,13.1-6.9,20.4c-4.5,4.8-10.9,7.3-19.1,7.3a26,26,0,0,1-13.5-3.4,22,22,0,0,1-9-9.6,32.5,32.5,0,0,1-3.2-14.7c0-8.7,2.3-15.5,6.9-20.3s10.9-7.2,19.1-7.2a27.7,27.7,0,0,1,13.6,3.3,22,22,0,0,1,9,9.6A31.7,31.7,0,0,1,843.3,117.6Zm-36.8,0c0,5.3.8,9.3,2.6,12s4.5,4,8.4,4,6.7-1.3,8.4-4,2.5-6.7,2.5-12-.8-9.2-2.5-11.9-4.6-3.9-8.5-3.9-6.6,1.3-8.4,3.9S806.5,112.3,806.5,117.6Z" transform="translate(0 -1.3)"/><path class="cls-1" d="M900,144.3H885.5V113.2c0-3.8-.7-6.7-2.1-8.6s-3.5-2.9-6.5-2.9-7,1.3-8.8,4.1-2.7,7.2-2.7,13.5v25H850.8V91.1h11.1l2,6.8h.8a15.4,15.4,0,0,1,6.7-5.9,23,23,0,0,1,9.7-1.9c6.2,0,10.9,1.6,14.1,5s4.8,8.2,4.8,14.5Z" transform="translate(0 -1.3)"/><path class="cls-2" d="M587.9,148.5c21-11.6,43.7-16.2,66.6-16.9,2.4,0,2.4-6.8,0-6.8a147.6,147.6,0,0,0-67.6,19,2.8,2.8,0,0,0-1.4,3c.3,1.2,1.4,2.2,2.4,1.7Z" transform="translate(0 -1.3)"/><path class="cls-1" d="M645.3,98.8c-1.1.2-1.5,1.8-1.5,1.8-2.5,7.8-5.7,14.7-7.9,15.2a4.7,4.7,0,0,1-5.3-3.6c-.4-1.8.5-13.2,1.4-22.6l6.3-1.2c1.2-.2,2.1-3.7,1.9-4.7s-.6-.6-1.1-.5l-6.7,1.3.8-7.7a12.7,12.7,0,0,0-.1-2c-.3-1.4-6-3.4-7.6-3.1s-1.2.9-1.3,2.1-.6,6.6-1.1,12.5l-2.2.4c-1.2.2-2.1,3.7-1.9,4.6a.8.8,0,0,0,1,.6l2.7-.5c-.3,5-.6,10.2-.8,14.5-2.4,7.4-5.3,13.6-7.6,14a2.6,2.6,0,0,1-2.5-1.8c-1.2-6.3,1.6-20.4,1.1-23.2s-5.3-1.6-7.3-1.2A15.1,15.1,0,0,0,594.3,91c-7.1,1.4-13.2,20.6-11.1,31,.8,4.3,8.3,8,11.9,7.3s7.8-6.9,7.8-6.9c1,2.1,8.1,3.8,11.7,3.1s5.8-3.6,7.9-7.8c2.2,3,8.9,4.6,13.5,3.7s9.1-9.2,11.9-17.9a8.1,8.1,0,0,0,.5-3C648.2,99.6,646.3,98.6,645.3,98.8ZM602.1,114c-1.4,5-4.8,8.6-6.3,8.9a3.1,3.1,0,0,1-3.4-2.7c-1.4-6.9,2.1-22.7,6.1-23.5,1.2-.2,4.4.2,4.7,1.5S603,110.4,602.1,114Z" transform="translate(0 -1.3)"/><path class="cls-2" d="M283.1,40C185.4,18.2,102.6,101.3,5,79.5q7.4-6.3,14.7-13.8C13.2,59,6.6,52,0,44.5,97.7,66.3,180.4-16.8,278.1,5c-5.5,4.4-10.9,9.3-16.3,14.5C268.9,26,275.9,32.8,283.1,40Z" transform="translate(0 -1.3)"/><path class="cls-3" d="M62.8,71.7c-4.2.5-8.4,1-12.6,1.3l-.4-3.1,3.6-4.6,2-2.8a4.9,4.9,0,0,0,.6-1.3,3.4,3.4,0,0,0,.1-1,2,2,0,0,0-.6-1.1,1.8,1.8,0,0,0-1.3-.2,3.5,3.5,0,0,0-1.6.6l-1.7,1.6-3-2.8a15.9,15.9,0,0,1,2-1.9l1.9-1,2.4-.5a8,8,0,0,1,3.1.3,4.9,4.9,0,0,1,2.3,1.4,4.8,4.8,0,0,1,1,2.3,6,6,0,0,1,0,1.9,4.1,4.1,0,0,1-.5,1.8,15.1,15.1,0,0,1-1.2,2,47.8,47.8,0,0,1-3.2,3.9h0l6.5-.8Z" transform="translate(0 -1.3)"/><path class="cls-3" d="M78.5,60.1c.4,3,.3,5.4-.6,7a5.6,5.6,0,0,1-4.3,3,5.2,5.2,0,0,1-5-1.4c-1.2-1.3-2-3.4-2.5-6.3s-.2-5.4.6-7a5.8,5.8,0,0,1,4.4-3A5,5,0,0,1,76,53.8C77.3,55,78.1,57.1,78.5,60.1Zm-7.7,1.5a11.2,11.2,0,0,0,.9,4,1.3,1.3,0,0,0,1.4.8,1.3,1.3,0,0,0,1-1.3,12.2,12.2,0,0,0-.2-4.1,18.9,18.9,0,0,0-.9-3.9c-.4-.7-.8-1.1-1.4-.9s-.9.5-1.1,1.3A17.3,17.3,0,0,0,70.8,61.6Z" transform="translate(0 -1.3)"/><path class="cls-3" d="M96.4,64.6c-4.1,1.1-8.2,2.2-12.3,3.1l-.5-3,3.6-5.3c1-1.5,1.6-2.6,1.9-3.1a7.3,7.3,0,0,0,.6-1.4,2.1,2.1,0,0,0,.1-1.1,1.7,1.7,0,0,0-.6-1,1.6,1.6,0,0,0-1.2,0,3.5,3.5,0,0,0-1.6.8l-1.7,1.8L81.8,53a15.4,15.4,0,0,1,2-2.2,5.7,5.7,0,0,1,1.8-1.2,9.2,9.2,0,0,1,2.3-.9,6.5,6.5,0,0,1,3.1-.1,3.6,3.6,0,0,1,2.2,1.1A4.5,4.5,0,0,1,94.3,52a6.1,6.1,0,0,1,0,1.9,7,7,0,0,1-.6,1.9,8.5,8.5,0,0,1-1.1,2.1,45.2,45.2,0,0,1-3.2,4.4v.2l6.4-1.7Z" transform="translate(0 -1.3)"/><path class="cls-3" d="M110.9,60.4l-4.6,1.4L105,52.7c-.1-1.1-.3-2.1-.3-3.1l-.9,1.5-1.7,2.1a31.1,31.1,0,0,1-2.8-2.3l5.1-6.5,4.1-1.2Z" transform="translate(0 -1.3)"/><path class="cls-3" d="M137.6,46.2a6.9,6.9,0,0,1-.4,3.2,7.3,7.3,0,0,1-2,2.7,9.2,9.2,0,0,1-3.4,1.8,13.3,13.3,0,0,1-2.9.7,10.4,10.4,0,0,1-2.5,0l-.5-4.2a8.6,8.6,0,0,0,2.8.2,9.2,9.2,0,0,0,2.6-.5,3.5,3.5,0,0,0,1.5-.8c.2-.4.4-.7.3-1.1a.7.7,0,0,0-.3-.6l-.7-.3-2.4-.4a7.7,7.7,0,0,1-2.6-.6,3.7,3.7,0,0,1-1.5-1.3,5.2,5.2,0,0,1-.7-2,5.5,5.5,0,0,1,1.2-4.3,9.4,9.4,0,0,1,4.4-2.9,12.8,12.8,0,0,1,5.5-.6l-.9,4.1a9.5,9.5,0,0,0-4.2.3,2.2,2.2,0,0,0-1.2.7.9.9,0,0,0-.3.9c0,.4.2.6.6.8l3,.5a7.5,7.5,0,0,1,3.3,1.1A4.3,4.3,0,0,1,137.6,46.2Z" transform="translate(0 -1.3)"/><path class="cls-3" d="M153.6,46.3l-9.9,3.4-2.5-17.3,10-3.3.5,3.7-5.4,1.8.4,2.7,5-1.7.5,3.8-5,1.7.4,3.2,5.5-1.8Z" transform="translate(0 -1.3)"/><path class="cls-3" d="M169.6,41.1c-.4-1-.8-2-1.3-3l-5.4,1.8c-.2,1.1-.3,2.3-.4,3.5l-5,1.6,3-19.1,6.1-2c2.6,5.2,5.3,10.4,8,15.6Zm-2.8-6.5a20.3,20.3,0,0,0-1.1-2.6c-.2-.6-.6-1.3-.9-2.3a11.6,11.6,0,0,1-.8-2c0,.5-.1,1.2-.2,2.2s-.2,2.9-.5,5.8Z" transform="translate(0 -1.3)"/><path class="cls-3" d="M189.5,29.8a6.5,6.5,0,0,1-.4,3.1,6.7,6.7,0,0,1-2,2.5,11.4,11.4,0,0,1-3.5,1.7l-2.8.6a10.6,10.6,0,0,1-2.5-.2l-.6-4.1a8.8,8.8,0,0,0,2.8.2,11.2,11.2,0,0,0,2.7-.3,3,3,0,0,0,1.4-.8,1.5,1.5,0,0,0,.4-1.1l-.3-.5-.7-.4-2.4-.5a10.3,10.3,0,0,1-2.7-.7,4.7,4.7,0,0,1-1.5-1.3,10.3,10.3,0,0,1-.7-2.1,5.3,5.3,0,0,1,1.2-4.2,9.1,9.1,0,0,1,4.5-2.7,11.3,11.3,0,0,1,5.5-.2l-.9,4a8.4,8.4,0,0,0-4.2,0,2.3,2.3,0,0,0-1.3.7,1.6,1.6,0,0,0-.3.9,1,1,0,0,0,.7.7,16.6,16.6,0,0,0,3,.7,7.3,7.3,0,0,1,3.3,1.3A4.3,4.3,0,0,1,189.5,29.8Z" transform="translate(0 -1.3)"/><path class="cls-3" d="M210.3,21.5a9.3,9.3,0,0,1-1.1,7,9.1,9.1,0,0,1-5.9,3.6c-2.7.6-4.8.3-6.5-.9s-2.6-3.2-3-6.1a10.3,10.3,0,0,1,1.1-7.1,9.2,9.2,0,0,1,5.9-3.7,7.7,7.7,0,0,1,6.5,1C208.9,16.5,209.9,18.6,210.3,21.5ZM198.6,24c.5,3.3,1.9,4.7,4.1,4.2a3.4,3.4,0,0,0,2.5-1.8,7.7,7.7,0,0,0,.3-3.9,6.8,6.8,0,0,0-1.4-3.7,2.7,2.7,0,0,0-2.8-.6C199,18.7,198.1,20.6,198.6,24Z" transform="translate(0 -1.3)"/><path class="cls-3" d="M233.9,27.1l-6.1.6-8-11.3h-.2c.5,1.9.7,3.3.9,4.3l1.1,7.8-4.1.6L215,11.9l6.1-.9,8,11.2h.1c-.4-1.7-.6-3.1-.8-4.1l-1.1-7.8,4.2-.4Z" transform="translate(0 -1.3)"/></svg>