<?xml version="1.0" standalone="no"?>
<!DOCTYPE svg PUBLIC "-//W3C//DTD SVG 20010904//EN"
 "http://www.w3.org/TR/2001/REC-SVG-20010904/DTD/svg10.dtd">
<svg version="1.0" xmlns="http://www.w3.org/2000/svg"
 width="371.000000pt" height="371.000000pt" viewBox="0 0 371.000000 371.000000"
 preserveAspectRatio="xMidYMid meet">
<metadata>
Created by potrace 1.11, written by Peter Selinger 2001-2013
</metadata>
<g transform="translate(0.000000,371.000000) scale(0.100000,-0.100000)"
fill="#000000" stroke="none">
<path d="M2585 2884 c-49 -8 -112 -19 -140 -26 -27 -7 -52 -13 -55 -13 -98
-23 -380 -147 -380 -168 0 -4 3 -6 8 -3 27 17 267 26 385 14 391 -39 582 -215
591 -547 8 -255 -126 -425 -373 -477 -71 -14 -221 -21 -251 -10 -8 3 -33 8
-55 11 -78 11 -255 62 -505 144 -369 122 -613 185 -802 208 -81 10 -329 10
-388 0 -94 -15 -167 -38 -248 -78 -45 -23 -81 -44 -78 -46 2 -2 22 5 43 16
137 69 400 82 663 31 104 -20 275 -69 470 -135 546 -186 645 -219 765 -254
126 -38 175 -51 204 -57 7 -1 34 -8 60 -14 25 -6 57 -13 71 -16 14 -2 48 -9
75 -15 126 -25 223 -34 375 -32 153 2 252 22 360 75 76 37 182 138 223 212 31
55 71 164 81 216 3 19 9 46 12 60 13 60 13 276 -1 327 -57 211 -236 395 -485
501 -188 79 -414 106 -625 76z"/>
<path d="M370 1890 c-106 -26 -165 -60 -233 -134 -97 -105 -140 -234 -133
-402 12 -307 207 -522 476 -526 110 -2 199 26 274 85 56 44 72 63 105 130 73
150 18 328 -123 396 -45 22 -186 40 -186 24 0 -5 9 -9 21 -10 32 -3 108 -43
136 -72 34 -35 54 -84 58 -143 17 -235 -342 -322 -498 -120 -58 75 -80 239
-46 340 49 142 170 229 359 258 41 6 202 5 245 -1 199 -31 366 -85 663 -217
451 -199 768 -318 942 -353 8 -2 33 -8 55 -13 112 -29 230 -41 385 -37 122 2
159 7 235 29 141 42 257 110 359 209 44 44 122 137 114 137 -3 0 -24 -19 -48
-42 -98 -93 -255 -168 -407 -194 -13 -2 -35 -7 -50 -10 -63 -14 -300 -12 -393
2 -187 30 -405 93 -675 194 -11 4 -23 8 -28 8 -4 1 -20 8 -35 16 -15 8 -47 22
-72 31 -25 9 -58 23 -75 30 -29 13 -96 41 -300 125 -326 135 -569 219 -725
250 -145 30 -303 33 -400 10z"/>
</g>
</svg>